<?xml version="1.0" standalone="no"?>
<!DOCTYPE svg PUBLIC "-//W3C//DTD SVG 20010904//EN"
 "http://www.w3.org/TR/2001/REC-SVG-20010904/DTD/svg10.dtd">
<svg version="1.0" xmlns="http://www.w3.org/2000/svg"
 width="500.000000pt" height="500.000000pt" viewBox="0 0 500.000000 500.000000"
 preserveAspectRatio="xMidYMid meet">

<g transform="translate(0.000000,500.000000) scale(0.100000,-0.100000)"
fill="#000000" stroke="none">
<path d="M2170 4988 c-36 -5 -104 -22 -151 -38 -241 -80 -440 -279 -514 -512
-40 -126 -45 -186 -45 -555 l0 -353 -731 0 -730 0 4 -682 c4 -767 1 -734 81
-903 115 -241 343 -412 610 -455 33 -5 220 -10 414 -10 l352 0 0 -327 1 -328
29 35 c17 19 58 75 91 124 162 239 230 464 230 756 -1 398 -134 761 -404 1095
-137 170 -447 440 -562 489 l-40 17 50 -6 c419 -50 912 -266 1285 -561 105
-83 329 -309 390 -392 25 -34 47 -61 50 -61 3 -1 20 36 39 82 56 135 251 512
344 663 148 241 338 501 500 683 l57 65 -2 591 -3 590 -640 1 c-352 1 -669 -3
-705 -8z m355 -1309 c37 -14 77 -41 119 -80 134 -125 183 -296 141 -494 -38
-184 -107 -278 -237 -321 -216 -71 -468 172 -468 451 0 65 38 232 65 285 78
153 228 216 380 159z"/>
</g>
</svg>
